4D 54 68 64 00 00 00 06 00 01 00 03 00 C0 4D 54 72 6B 00 00 00 52 00 FF 58 04 03 03 0C 08 00 FF 51 03 07 A1 20 82 20 FF 58 04 06 03 0C 08 9F 40 FF 58 04 03 03 0C 08 84 40 FF 58 04 06 03 0C 08 9F 40 FF 58 04 03 03 0C 08 84 40 FF 58 04 06 03 0C 08 C8 00 FF 58 04 03 03 0C 08 82 20 FF 58 04 06 03 0C 08 00 FF 2F 00 4D 54 72 6B 00 00 0D 7C 00 FF 21 01 01 00 FF 03 14 53 69 63 69 6C 69 61 6E 61 20 62 79 20 43 61 72 75 6C 6C 69 00 C0 3B 00 90 4C 40 00 B0 0A 00 60 80 4C 40 00 90 4C 40 60 80 4C 40 00 90 4C 40 60 80 4C 40 00 90 45 40 0C 80 45 40 00 90 45 40 04 48 40 0C 80 48 40 08 90 48 40 04 4C 40 0C 80 4C 40 08 90 4C 40 81 04 80 45 40 00 48 40 00 4C 40 00 90 4C 40 60 80 4C 40 00 90 44 40 0C 80 44 40 00 90 44 40 04 47 40 0C 80 47 40 08 90 47 40 04 4D 40 0C 80 4D 40 08 90 4D 40 81 04 80 44 40 00 47 40 00 4D 40 00 90 4D 40 60 80 4D 40 00 90 45 40 0C 80 45 40 00 90 45 40 04 48 40 0C 80 48 40 08 90 48 40 04 4C 40 0C 80 4C 40 08 90 4C 40 81 04 80 45 40 00 48 40 00 4C 40 00 90 4C 40 60 80 4C 40 00 90 4C 40 60 80 4C 40 00 90 4D 40 60 80 4D 40 00 90 4C 40 60 80 4C 40 00 90 4A 40 00 47 40 00 34 40 81 40 80 4A 40 00 47 40 00 90 44 40 00 47 40 60 80 34 40 00 44 40 00 47 40 00 90 45 40 00 48 40 00 39 40 81 40 80 45 40 00 48 40 00 39 40 00 90 4C 40 60 80 4C 40 00 90 34 40 00 44 40 00 47 40 81 40 80 34 40 00 44 40 00 47 40 00 90 47 40 60 80 47 40 00 90 4C 40 60 80 4C 40 00 90 4C 40 60 80 4C 40 00 90 4C 40 60 80 4C 40 00 90 45 40 0C 80 45 40 00 90 45 40 04 48 40 0C 80 48 40 08 90 48 40 04 4C 40 0C 80 4C 40 08 90 4C 40 81 04 80 45 40 00 48 40 00 4C 40 00 90 4C 40 60 80 4C 40 00 90 44 40 0C 80 44 40 00 90 44 40 04 47 40 0C 80 47 40 08 90 47 40 04 4D 40 0C 80 4D 40 08 90 4D 40 81 04 80 44 40 00 47 40 00 4D 40 00 90 4D 40 60 80 4D 40 00 90 45 40 0C 80 45 40 00 90 45 40 04 48 40 0C 80 48 40 08 90 48 40 04 4C 40 0C 80 4C 40 08 90 4C 40 81 04 80 45 40 00 48 40 00 4C 40 00 90 4C 40 60 80 4C 40 00 90 4A 40 60 80 4A 40 00 90 4C 40 60 80 4C 40 00 90 4D 40 60 80 4D 40 00 90 4F 40 81 40 80 4F 40 00 90 48 40 00 40 40 60 80 48 40 00 40 40 00 90 41 40 00 4A 40 81 40 80 41 40 00 4A 40 00 90 47 40 00 3E 40 00 37 40 60 80 47 40 00 3E 40 00 37 40 00 90 3C 40 00 40 40 00 48 40 82 20 80 3C 40 00 40 40 00 48 40 00 90 4C 40 60 80 4C 40 00 90 4C 40 60 80 4C 40 00 90 4C 40 60 80 4C 40 00 90 45 40 0C 80 45 40 00 90 45 40 04 48 40 0C 80 48 40 08 90 48 40 04 4C 40 0C 80 4C 40 08 90 4C 40 81 04 80 45 40 00 48 40 00 4C 40 00 90 4C 40 60 80 4C 40 00 90 44 40 0C 80 44 40 00 90 44 40 04 47 40 0C 80 47 40 08 90 47 40 04 4D 40 0C 80 4D 40 08 90 4D 40 81 04 80 44 40 00 47 40 00 4D 40 00 90 4D 40 60 80 4D 40 00 90 45 40 0C 80 45 40 00 90 45 40 04 48 40 0C 80 48 40 08 90 48 40 04 4C 40 0C 80 4C 40 08 90 4C 40 81 04 80 45 40 00 48 40 00 4C 40 00 90 4C 40 60 80 4C 40 00 90 4C 40 60 80 4C 40 00 90 4D 40 60 80 4D 40 00 90 4C 40 60 80 4C 40 00 90 4A 40 00 47 40 00 34 40 81 40 80 4A 40 00 47 40 00 90 44 40 00 47 40 60 80 34 40 00 44 40 00 47 40 00 90 45 40 00 48 40 00 39 40 81 40 80 45 40 00 48 40 00 39 40 00 90 4C 40 60 80 4C 40 00 90 34 40 00 44 40 00 47 40 81 40 80 34 40 00 44 40 00 47 40 00 90 47 40 60 80 47 40 00 90 4C 40 60 80 4C 40 00 90 4C 40 60 80 4C 40 00 90 4C 40 60 80 4C 40 00 90 45 40 0C 80 45 40 00 90 45 40 04 48 40 0C 80 48 40 08 90 48 40 04 4C 40 0C 80 4C 40 08 90 4C 40 81 04 80 45 40 00 48 40 00 4C 40 00 90 4C 40 60 80 4C 40 00 90 44 40 0C 80 44 40 00 90 44 40 04 47 40 0C 80 47 40 08 90 47 40 04 4D 40 0C 80 4D 40 08 90 4D 40 81 04 80 44 40 00 47 40 00 4D 40 00 90 4D 40 60 80 4D 40 00 90 45 40 0C 80 45 40 00 90 45 40 04 48 40 0C 80 48 40 08 90 48 40 04 4C 40 0C 80 4C 40 08 90 4C 40 81 04 80 45 40 00 48 40 00 4C 40 00 90 4C 40 60 80 4C 40 00 90 4A 40 60 80 4A 40 00 90 4C 40 60 80 4C 40 00 90 4D 40 60 80 4D 40 00 90 4F 40 81 40 80 4F 40 00 90 48 40 00 40 40 60 80 48 40 00 40 40 00 90 41 40 00 4A 40 81 40 80 41 40 00 4A 40 00 90 47 40 00 3E 40 00 37 40 60 80 47 40 00 3E 40 00 37 40 00 90 3C 40 00 40 40 00 48 40 82 20 80 3C 40 00 40 40 00 48 40 00 90 4C 40 60 80 4C 40 00 90 4D 40 60 80 4D 40 00 90 4C 40 60 80 4C 40 00 90 47 40 00 44 40 00 34 40 81 40 80 47 40 00 44 40 00 34 40 00 90 47 40 60 80 47 40 00 90 4C 40 60 80 4C 40 00 90 4D 40 60 80 4D 40 00 90 4C 40 60 80 4C 40 00 90 48 40 00 45 40 00 34 40 81 40 80 48 40 00 45 40 00 90 48 40 60 80 34 40 00 48 40 00 90 4C 40 60 80 4C 40 00 90 4D 40 60 80 4D 40 00 90 4C 40 60 80 4C 40 00 90 4A 40 00 34 40 60 80 4A 40 00 90 47 40 60 80 47 40 00 90 44 40 60 80 34 40 00 44 40 00 90 45 40 00 34 40 60 80 45 40 00 90 48 40 60 80 48 40 00 90 4C 40 60 80 34 40 00 4C 40 00 90 34 40 00 47 40 60 80 47 40 00 90 44 40 60 80 44 40 00 90 40 40 60 80 34 40 00 40 40 00 90 4C 40 60 80 4C 40 00 90 4D 40 60 80 4D 40 00 90 4C 40 60 80 4C 40 00 90 34 40 00 44 40 00 47 40 81 40 80 44 40 00 47 40 00 90 47 40 60 80 34 40 00 47 40 00 90 4C 40 60 80 4C 40 00 90 4D 40 60 80 4D 40 00 90 4C 40 60 80 4C 40 00 90 48 40 00 45 40 00 34 40 81 40 80 48 40 00 45 40 00 90 48 40 60 80 34 40 00 48 40 00 90 4C 40 60 80 4C 40 00 90 4D 40 60 80 4D 40 00 90 4C 40 60 80 4C 40 00 90 4A 40 00 34 40 60 80 4A 40 00 90 47 40 60 80 47 40 00 90 44 40 60 80 34 40 00 44 40 00 90 45 40 00 39 40 60 80 45 40 00 90 48 40 60 80 48 40 00 90 4C 40 60 80 39 40 00 4C 40 00 90 34 40 00 44 40 00 47 40 82 20 80 34 40 00 44 40 00 47 40 00 90 4C 40 60 80 4C 40 00 90 4C 40 60 80 4C 40 00 90 4C 40 60 80 4C 40 00 90 45 40 0C 80 45 40 00 90 45 40 04 48 40 0C 80 48 40 08 90 48 40 04 4C 40 0C 80 4C 40 08 90 4C 40 81 04 80 45 40 00 48 40 00 4C 40 00 90 4C 40 60 80 4C 40 00 90 44 40 0C 80 44 40 00 90 44 40 04 47 40 0C 80 47 40 08 90 47 40 04 4D 40 0C 80 4D 40 08 90 4D 40 81 04 80 44 40 00 47 40 00 4D 40 00 90 4D 40 60 80 4D 40 00 90 45 40 0C 80 45 40 00 90 45 40 04 48 40 0C 80 48 40 08 90 48 40 04 4C 40 0C 80 4C 40 08 90 4C 40 81 04 80 45 40 00 48 40 00 4C 40 00 90 4C 40 60 80 4C 40 00 90 4C 40 60 80 4C 40 00 90 4D 40 60 80 4D 40 00 90 4C 40 60 80 4C 40 00 90 4A 40 00 47 40 00 34 40 81 40 80 4A 40 00 47 40 00 90 44 40 00 47 40 60 80 34 40 00 44 40 00 47 40 00 90 45 40 00 48 40 00 39 40 81 40 80 45 40 00 48 40 00 39 40 00 90 4C 40 60 80 4C 40 00 90 34 40 00 44 40 00 47 40 81 40 80 34 40 00 44 40 00 47 40 00 90 47 40 60 80 47 40 00 90 4C 40 60 80 4C 40 00 90 4C 40 60 80 4C 40 00 90 4C 40 60 80 4C 40 00 90 45 40 0C 80 45 40 00 90 45 40 04 48 40 0C 80 48 40 08 90 48 40 04 4C 40 0C 80 4C 40 08 90 4C 40 81 04 80 45 40 00 48 40 00 4C 40 00 90 4C 40 60 80 4C 40 00 90 44 40 0C 80 44 40 00 90 44 40 04 47 40 0C 80 47 40 08 90 47 40 04 4D 40 0C 80 4D 40 08 90 4D 40 81 04 80 44 40 00 47 40 00 4D 40 00 90 4D 40 60 80 4D 40 00 90 45 40 0C 80 45 40 00 90 45 40 04 48 40 0C 80 48 40 08 90 48 40 04 4C 40 0C 80 4C 40 08 90 4C 40 81 04 80 45 40 00 48 40 00 4C 40 00 90 4C 40 60 80 4C 40 00 90 49 40 00 43 40 60 80 49 40 00 43 40 00 90 41 40 00 4A 40 60 80 41 40 00 4A 40 00 90 4C 40 00 40 40 60 80 4C 40 00 40 40 00 90 3E 40 00 4D 40 60 80 4D 40 00 90 4C 40 60 80 3E 40 00 4C 40 00 90 4A 40 00 41 40 60 80 4A 40 00 41 40 00 90 40 40 00 48 40 81 40 80 40 40 00 48 40 00 90 47 40 00 44 40 00 34 40 60 80 47 40 00 44 40 00 34 40 00 90 39 40 00 45 40 84 40 80 39 40 00 45 40 00 90 4C 40 60 80 4C 40 00 90 4D 40 60 80 4D 40 00 90 4C 40 60 80 4C 40 00 90 47 40 00 44 40 00 34 40 81 40 80 47 40 00 44 40 00 34 40 00 90 47 40 60 80 47 40 00 90 4C 40 60 80 4C 40 00 90 4D 40 60 80 4D 40 00 90 4C 40 60 80 4C 40 00 90 48 40 00 45 40 00 34 40 81 40 80 48 40 00 45 40 00 90 48 40 60 80 34 40 00 48 40 00 90 4C 40 60 80 4C 40 00 90 4D 40 60 80 4D 40 00 90 4C 40 60 80 4C 40 00 90 4A 40 00 34 40 60 80 4A 40 00 90 47 40 60 80 47 40 00 90 44 40 60 80 34 40 00 44 40 00 90 45 40 00 34 40 60 80 45 40 00 90 48 40 60 80 48 40 00 90 4C 40 60 80 34 40 00 4C 40 00 90 34 40 00 47 40 60 80 47 40 00 90 44 40 60 80 44 40 00 90 40 40 60 80 34 40 00 40 40 00 90 4C 40 60 80 4C 40 00 90 4D 40 60 80 4D 40 00 90 4C 40 60 80 4C 40 00 90 34 40 00 44 40 00 47 40 81 40 80 44 40 00 47 40 00 90 47 40 60 80 34 40 00 47 40 00 90 4C 40 60 80 4C 40 00 90 4D 40 60 80 4D 40 00 90 4C 40 60 80 4C 40 00 90 48 40 00 45 40 00 34 40 81 40 80 48 40 00 45 40 00 90 48 40 60 80 34 40 00 48 40 00 90 4C 40 60 80 4C 40 00 90 4D 40 60 80 4D 40 00 90 4C 40 60 80 4C 40 00 90 4A 40 00 34 40 60 80 4A 40 00 90 47 40 60 80 47 40 00 90 44 40 60 80 34 40 00 44 40 00 90 45 40 00 39 40 60 80 45 40 00 90 48 40 60 80 48 40 00 90 4C 40 60 80 39 40 00 4C 40 00 90 34 40 00 44 40 00 47 40 82 20 80 34 40 00 44 40 00 47 40 00 90 4C 40 60 80 4C 40 00 90 4C 40 60 80 4C 40 00 90 4C 40 60 80 4C 40 00 90 45 40 0C 80 45 40 00 90 45 40 04 48 40 0C 80 48 40 08 90 48 40 04 4C 40 0C 80 4C 40 08 90 4C 40 81 04 80 45 40 00 48 40 00 4C 40 00 90 4C 40 60 80 4C 40 00 90 44 40 0C 80 44 40 00 90 44 40 04 47 40 0C 80 47 40 08 90 47 40 04 4D 40 0C 80 4D 40 08 90 4D 40 81 04 80 44 40 00 47 40 00 4D 40 00 90 4D 40 60 80 4D 40 00 90 45 40 0C 80 45 40 00 90 45 40 04 48 40 0C 80 48 40 08 90 48 40 04 4C 40 0C 80 4C 40 08 90 4C 40 81 04 80 45 40 00 48 40 00 4C 40 00 90 4C 40 60 80 4C 40 00 90 4C 40 60 80 4C 40 00 90 4D 40 60 80 4D 40 00 90 4C 40 60 80 4C 40 00 90 4A 40 00 47 40 00 34 40 81 40 80 4A 40 00 47 40 00 90 44 40 00 47 40 60 80 34 40 00 44 40 00 47 40 00 90 45 40 00 48 40 00 39 40 81 40 80 45 40 00 48 40 00 39 40 00 90 4C 40 60 80 4C 40 00 90 34 40 00 44 40 00 47 40 81 40 80 34 40 00 44 40 00 47 40 00 90 47 40 60 80 47 40 00 90 4C 40 60 80 4C 40 00 90 4C 40 60 80 4C 40 00 90 4C 40 60 80 4C 40 00 90 45 40 0C 80 45 40 00 90 45 40 04 48 40 0C 80 48 40 08 90 48 40 04 4C 40 0C 80 4C 40 08 90 4C 40 81 04 80 45 40 00 48 40 00 4C 40 00 90 4C 40 60 80 4C 40 00 90 44 40 0C 80 44 40 00 90 44 40 04 47 40 0C 80 47 40 08 90 47 40 04 4D 40 0C 80 4D 40 08 90 4D 40 81 04 80 44 40 00 47 40 00 4D 40 00 90 4D 40 60 80 4D 40 00 90 45 40 0C 80 45 40 00 90 45 40 04 48 40 0C 80 48 40 08 90 48 40 04 4C 40 0C 80 4C 40 08 90 4C 40 81 04 80 45 40 00 48 40 00 4C 40 00 90 4C 40 60 80 4C 40 00 90 49 40 00 43 40 60 80 49 40 00 43 40 00 90 41 40 00 4A 40 60 80 41 40 00 4A 40 00 90 4C 40 00 40 40 60 80 4C 40 00 40 40 00 90 3E 40 00 4D 40 60 80 4D 40 00 90 4C 40 60 80 3E 40 00 4C 40 00 90 4A 40 00 41 40 60 80 4A 40 00 41 40 00 90 40 40 00 48 40 81 40 80 40 40 00 48 40 00 90 47 40 00 44 40 00 34 40 60 80 47 40 00 44 40 00 34 40 00 90 39 40 00 45 40 60 80 45 40 00 90 4D 40 60 80 4D 40 00 90 4C 40 60 80 39 40 00 4C 40 00 90 47 40 00 44 40 00 34 40 60 80 47 40 00 44 40 00 90 4D 40 60 80 4D 40 00 90 4C 40 60 80 34 40 00 4C 40 00 90 48 40 00 39 40 60 80 48 40 00 90 4D 40 60 80 4D 40 00 90 4C 40 60 80 39 40 00 4C 40 00 90 4A 40 00 34 40 60 80 4A 40 00 90 47 40 60 80 47 40 00 90 44 40 60 80 34 40 00 44 40 00 90 45 40 00 39 40 82 20 80 45 40 00 39 40 00 90 39 40 00 45 40 82 20 80 39 40 00 45 40 00 90 45 40 00 39 40 82 20 80 45 40 00 39 40 00 FF 2F 00 4D 54 72 6B 00 00 0D 7C 00 FF 21 01 01 00 FF 03 14 52 2E 46 65 6E 6E 69 6D 6F 72 65 20 20 20 20 20 20 20 20 20 00 C1 3B 00 91 40 40 00 B1 0A 7F 60 81 40 40 00 91 40 40 60 81 40 40 00 91 40 40 60 81 40 40 00 91 39 40 0C 81 39 40 00 91 39 40 04 3C 40 0C 81 3C 40 08 91 3C 40 04 40 40 0C 81 40 40 08 91 40 40 81 04 81 39 40 00 3C 40 00 40 40 00 91 40 40 60 81 40 40 00 91 38 40 0C 81 38 40 00 91 38 40 04 3B 40 0C 81 3B 40 08 91 3B 40 04 41 40 0C 81 41 40 08 91 41 40 81 04 81 38 40 00 3B 40 00 41 40 00 91 41 40 60 81 41 40 00 91 39 40 0C 81 39 40 00 91 39 40 04 3C 40 0C 81 3C 40 08 91 3C 40 04 40 40 0C 81 40 40 08 91 40 40 81 04 81 39 40 00 3C 40 00 40 40 00 91 40 40 60 81 40 40 00 91 40 40 60 81 40 40 00 91 41 40 60 81 41 40 00 91 40 40 60 81 40 40 00 91 3E 40 00 3B 40 00 28 40 81 40 81 3E 40 00 3B 40 00 91 38 40 00 3B 40 60 81 28 40 00 38 40 00 3B 40 00 91 39 40 00 3C 40 00 2D 40 81 40 81 39 40 00 3C 40 00 2D 40 00 91 40 40 60 81 40 40 00 91 28 40 00 38 40 00 3B 40 81 40 81 28 40 00 38 40 00 3B 40 00 91 3B 40 60 81 3B 40 00 91 40 40 60 81 40 40 00 91 40 40 60 81 40 40 00 91 40 40 60 81 40 40 00 91 39 40 0C 81 39 40 00 91 39 40 04 3C 40 0C 81 3C 40 08 91 3C 40 04 40 40 0C 81 40 40 08 91 40 40 81 04 81 39 40 00 3C 40 00 40 40 00 91 40 40 60 81 40 40 00 91 38 40 0C 81 38 40 00 91 38 40 04 3B 40 0C 81 3B 40 08 91 3B 40 04 41 40 0C 81 41 40 08 91 41 40 81 04 81 38 40 00 3B 40 00 41 40 00 91 41 40 60 81 41 40 00 91 39 40 0C 81 39 40 00 91 39 40 04 3C 40 0C 81 3C 40 08 91 3C 40 04 40 40 0C 81 40 40 08 91 40 40 81 04 81 39 40 00 3C 40 00 40 40 00 91 40 40 60 81 40 40 00 91 3E 40 60 81 3E 40 00 91 40 40 60 81 40 40 00 91 41 40 60 81 41 40 00 91 43 40 81 40 81 43 40 00 91 3C 40 00 34 40 60 81 3C 40 00 34 40 00 91 35 40 00 3E 40 81 40 81 35 40 00 3E 40 00 91 3B 40 00 32 40 00 2B 40 60 81 3B 40 00 32 40 00 2B 40 00 91 30 40 00 34 40 00 3C 40 82 20 81 30 40 00 34 40 00 3C 40 00 91 40 40 60 81 40 40 00 91 40 40 60 81 40 40 00 91 40 40 60 81 40 40 00 91 39 40 0C 81 39 40 00 91 39 40 04 3C 40 0C 81 3C 40 08 91 3C 40 04 40 40 0C 81 40 40 08 91 40 40 81 04 81 39 40 00 3C 40 00 40 40 00 91 40 40 60 81 40 40 00 91 38 40 0C 81 38 40 00 91 38 40 04 3B 40 0C 81 3B 40 08 91 3B 40 04 41 40 0C 81 41 40 08 91 41 40 81 04 81 38 40 00 3B 40 00 41 40 00 91 41 40 60 81 41 40 00 91 39 40 0C 81 39 40 00 91 39 40 04 3C 40 0C 81 3C 40 08 91 3C 40 04 40 40 0C 81 40 40 08 91 40 40 81 04 81 39 40 00 3C 40 00 40 40 00 91 40 40 60 81 40 40 00 91 40 40 60 81 40 40 00 91 41 40 60 81 41 40 00 91 40 40 60 81 40 40 00 91 3E 40 00 3B 40 00 28 40 81 40 81 3E 40 00 3B 40 00 91 38 40 00 3B 40 60 81 28 40 00 38 40 00 3B 40 00 91 39 40 00 3C 40 00 2D 40 81 40 81 39 40 00 3C 40 00 2D 40 00 91 40 40 60 81 40 40 00 91 28 40 00 38 40 00 3B 40 81 40 81 28 40 00 38 40 00 3B 40 00 91 3B 40 60 81 3B 40 00 91 40 40 60 81 40 40 00 91 40 40 60 81 40 40 00 91 40 40 60 81 40 40 00 91 39 40 0C 81 39 40 00 91 39 40 04 3C 40 0C 81 3C 40 08 91 3C 40 04 40 40 0C 81 40 40 08 91 40 40 81 04 81 39 40 00 3C 40 00 40 40 00 91 40 40 60 81 40 40 00 91 38 40 0C 81 38 40 00 91 38 40 04 3B 40 0C 81 3B 40 08 91 3B 40 04 41 40 0C 81 41 40 08 91 41 40 81 04 81 38 40 00 3B 40 00 41 40 00 91 41 40 60 81 41 40 00 91 39 40 0C 81 39 40 00 91 39 40 04 3C 40 0C 81 3C 40 08 91 3C 40 04 40 40 0C 81 40 40 08 91 40 40 81 04 81 39 40 00 3C 40 00 40 40 00 91 40 40 60 81 40 40 00 91 3E 40 60 81 3E 40 00 91 40 40 60 81 40 40 00 91 41 40 60 81 41 40 00 91 43 40 81 40 81 43 40 00 91 3C 40 00 34 40 60 81 3C 40 00 34 40 00 91 35 40 00 3E 40 81 40 81 35 40 00 3E 40 00 91 3B 40 00 32 40 00 2B 40 60 81 3B 40 00 32 40 00 2B 40 00 91 30 40 00 34 40 00 3C 40 82 20 81 30 40 00 34 40 00 3C 40 00 91 40 40 60 81 40 40 00 91 41 40 60 81 41 40 00 91 40 40 60 81 40 40 00 91 3B 40 00 38 40 00 28 40 81 40 81 3B 40 00 38 40 00 28 40 00 91 3B 40 60 81 3B 40 00 91 40 40 60 81 40 40 00 91 41 40 60 81 41 40 00 91 40 40 60 81 40 40 00 91 3C 40 00 39 40 00 28 40 81 40 81 3C 40 00 39 40 00 91 3C 40 60 81 28 40 00 3C 40 00 91 40 40 60 81 40 40 00 91 41 40 60 81 41 40 00 91 40 40 60 81 40 40 00 91 3E 40 00 28 40 60 81 3E 40 00 91 3B 40 60 81 3B 40 00 91 38 40 60 81 28 40 00 38 40 00 91 39 40 00 28 40 60 81 39 40 00 91 3C 40 60 81 3C 40 00 91 40 40 60 81 28 40 00 40 40 00 91 28 40 00 3B 40 60 81 3B 40 00 91 38 40 60 81 38 40 00 91 34 40 60 81 28 40 00 34 40 00 91 40 40 60 81 40 40 00 91 41 40 60 81 41 40 00 91 40 40 60 81 40 40 00 91 28 40 00 38 40 00 3B 40 81 40 81 38 40 00 3B 40 00 91 3B 40 60 81 28 40 00 3B 40 00 91 40 40 60 81 40 40 00 91 41 40 60 81 41 40 00 91 40 40 60 81 40 40 00 91 3C 40 00 39 40 00 28 40 81 40 81 3C 40 00 39 40 00 91 3C 40 60 81 28 40 00 3C 40 00 91 40 40 60 81 40 40 00 91 41 40 60 81 41 40 00 91 40 40 60 81 40 40 00 91 3E 40 00 28 40 60 81 3E 40 00 91 3B 40 60 81 3B 40 00 91 38 40 60 81 28 40 00 38 40 00 91 39 40 00 2D 40 60 81 39 40 00 91 3C 40 60 81 3C 40 00 91 40 40 60 81 2D 40 00 40 40 00 91 28 40 00 38 40 00 3B 40 82 20 81 28 40 00 38 40 00 3B 40 00 91 40 40 60 81 40 40 00 91 40 40 60 81 40 40 00 91 40 40 60 81 40 40 00 91 39 40 0C 81 39 40 00 91 39 40 04 3C 40 0C 81 3C 40 08 91 3C 40 04 40 40 0C 81 40 40 08 91 40 40 81 04 81 39 40 00 3C 40 00 40 40 00 91 40 40 60 81 40 40 00 91 38 40 0C 81 38 40 00 91 38 40 04 3B 40 0C 81 3B 40 08 91 3B 40 04 41 40 0C 81 41 40 08 91 41 40 81 04 81 38 40 00 3B 40 00 41 40 00 91 41 40 60 81 41 40 00 91 39 40 0C 81 39 40 00 91 39 40 04 3C 40 0C 81 3C 40 08 91 3C 40 04 40 40 0C 81 40 40 08 91 40 40 81 04 81 39 40 00 3C 40 00 40 40 00 91 40 40 60 81 40 40 00 91 40 40 60 81 40 40 00 91 41 40 60 81 41 40 00 91 40 40 60 81 40 40 00 91 3E 40 00 3B 40 00 28 40 81 40 81 3E 40 00 3B 40 00 91 38 40 00 3B 40 60 81 28 40 00 38 40 00 3B 40 00 91 39 40 00 3C 40 00 2D 40 81 40 81 39 40 00 3C 40 00 2D 40 00 91 40 40 60 81 40 40 00 91 28 40 00 38 40 00 3B 40 81 40 81 28 40 00 38 40 00 3B 40 00 91 3B 40 60 81 3B 40 00 91 40 40 60 81 40 40 00 91 40 40 60 81 40 40 00 91 40 40 60 81 40 40 00 91 39 40 0C 81 39 40 00 91 39 40 04 3C 40 0C 81 3C 40 08 91 3C 40 04 40 40 0C 81 40 40 08 91 40 40 81 04 81 39 40 00 3C 40 00 40 40 00 91 40 40 60 81 40 40 00 91 38 40 0C 81 38 40 00 91 38 40 04 3B 40 0C 81 3B 40 08 91 3B 40 04 41 40 0C 81 41 40 08 91 41 40 81 04 81 38 40 00 3B 40 00 41 40 00 91 41 40 60 81 41 40 00 91 39 40 0C 81 39 40 00 91 39 40 04 3C 40 0C 81 3C 40 08 91 3C 40 04 40 40 0C 81 40 40 08 91 40 40 81 04 81 39 40 00 3C 40 00 40 40 00 91 40 40 60 81 40 40 00 91 3D 40 00 37 40 60 81 3D 40 00 37 40 00 91 35 40 00 3E 40 60 81 35 40 00 3E 40 00 91 40 40 00 34 40 60 81 40 40 00 34 40 00 91 32 40 00 41 40 60 81 41 40 00 91 40 40 60 81 32 40 00 40 40 00 91 3E 40 00 35 40 60 81 3E 40 00 35 40 00 91 34 40 00 3C 40 81 40 81 34 40 00 3C 40 00 91 3B 40 00 38 40 00 28 40 60 81 3B 40 00 38 40 00 28 40 00 91 2D 40 00 39 40 84 40 81 2D 40 00 39 40 00 91 40 40 60 81 40 40 00 91 41 40 60 81 41 40 00 91 40 40 60 81 40 40 00 91 3B 40 00 38 40 00 28 40 81 40 81 3B 40 00 38 40 00 28 40 00 91 3B 40 60 81 3B 40 00 91 40 40 60 81 40 40 00 91 41 40 60 81 41 40 00 91 40 40 60 81 40 40 00 91 3C 40 00 39 40 00 28 40 81 40 81 3C 40 00 39 40 00 91 3C 40 60 81 28 40 00 3C 40 00 91 40 40 60 81 40 40 00 91 41 40 60 81 41 40 00 91 40 40 60 81 40 40 00 91 3E 40 00 28 40 60 81 3E 40 00 91 3B 40 60 81 3B 40 00 91 38 40 60 81 28 40 00 38 40 00 91 39 40 00 28 40 60 81 39 40 00 91 3C 40 60 81 3C 40 00 91 40 40 60 81 28 40 00 40 40 00 91 28 40 00 3B 40 60 81 3B 40 00 91 38 40 60 81 38 40 00 91 34 40 60 81 28 40 00 34 40 00 91 40 40 60 81 40 40 00 91 41 40 60 81 41 40 00 91 40 40 60 81 40 40 00 91 28 40 00 38 40 00 3B 40 81 40 81 38 40 00 3B 40 00 91 3B 40 60 81 28 40 00 3B 40 00 91 40 40 60 81 40 40 00 91 41 40 60 81 41 40 00 91 40 40 60 81 40 40 00 91 3C 40 00 39 40 00 28 40 81 40 81 3C 40 00 39 40 00 91 3C 40 60 81 28 40 00 3C 40 00 91 40 40 60 81 40 40 00 91 41 40 60 81 41 40 00 91 40 40 60 81 40 40 00 91 3E 40 00 28 40 60 81 3E 40 00 91 3B 40 60 81 3B 40 00 91 38 40 60 81 28 40 00 38 40 00 91 39 40 00 2D 40 60 81 39 40 00 91 3C 40 60 81 3C 40 00 91 40 40 60 81 2D 40 00 40 40 00 91 28 40 00 38 40 00 3B 40 82 20 81 28 40 00 38 40 00 3B 40 00 91 40 40 60 81 40 40 00 91 40 40 60 81 40 40 00 91 40 40 60 81 40 40 00 91 39 40 0C 81 39 40 00 91 39 40 04 3C 40 0C 81 3C 40 08 91 3C 40 04 40 40 0C 81 40 40 08 91 40 40 81 04 81 39 40 00 3C 40 00 40 40 00 91 40 40 60 81 40 40 00 91 38 40 0C 81 38 40 00 91 38 40 04 3B 40 0C 81 3B 40 08 91 3B 40 04 41 40 0C 81 41 40 08 91 41 40 81 04 81 38 40 00 3B 40 00 41 40 00 91 41 40 60 81 41 40 00 91 39 40 0C 81 39 40 00 91 39 40 04 3C 40 0C 81 3C 40 08 91 3C 40 04 40 40 0C 81 40 40 08 91 40 40 81 04 81 39 40 00 3C 40 00 40 40 00 91 40 40 60 81 40 40 00 91 40 40 60 81 40 40 00 91 41 40 60 81 41 40 00 91 40 40 60 81 40 40 00 91 3E 40 00 3B 40 00 28 40 81 40 81 3E 40 00 3B 40 00 91 38 40 00 3B 40 60 81 28 40 00 38 40 00 3B 40 00 91 39 40 00 3C 40 00 2D 40 81 40 81 39 40 00 3C 40 00 2D 40 00 91 40 40 60 81 40 40 00 91 28 40 00 38 40 00 3B 40 81 40 81 28 40 00 38 40 00 3B 40 00 91 3B 40 60 81 3B 40 00 91 40 40 60 81 40 40 00 91 40 40 60 81 40 40 00 91 40 40 60 81 40 40 00 91 39 40 0C 81 39 40 00 91 39 40 04 3C 40 0C 81 3C 40 08 91 3C 40 04 40 40 0C 81 40 40 08 91 40 40 81 04 81 39 40 00 3C 40 00 40 40 00 91 40 40 60 81 40 40 00 91 38 40 0C 81 38 40 00 91 38 40 04 3B 40 0C 81 3B 40 08 91 3B 40 04 41 40 0C 81 41 40 08 91 41 40 81 04 81 38 40 00 3B 40 00 41 40 00 91 41 40 60 81 41 40 00 91 39 40 0C 81 39 40 00 91 39 40 04 3C 40 0C 81 3C 40 08 91 3C 40 04 40 40 0C 81 40 40 08 91 40 40 81 04 81 39 40 00 3C 40 00 40 40 00 91 40 40 60 81 40 40 00 91 3D 40 00 37 40 60 81 3D 40 00 37 40 00 91 35 40 00 3E 40 60 81 35 40 00 3E 40 00 91 40 40 00 34 40 60 81 40 40 00 34 40 00 91 32 40 00 41 40 60 81 41 40 00 91 40 40 60 81 32 40 00 40 40 00 91 3E 40 00 35 40 60 81 3E 40 00 35 40 00 91 34 40 00 3C 40 81 40 81 34 40 00 3C 40 00 91 3B 40 00 38 40 00 28 40 60 81 3B 40 00 38 40 00 28 40 00 91 2D 40 00 39 40 60 81 39 40 00 91 41 40 60 81 41 40 00 91 40 40 60 81 2D 40 00 40 40 00 91 3B 40 00 38 40 00 28 40 60 81 3B 40 00 38 40 00 91 41 40 60 81 41 40 00 91 40 40 60 81 28 40 00 40 40 00 91 3C 40 00 2D 40 60 81 3C 40 00 91 41 40 60 81 41 40 00 91 40 40 60 81 2D 40 00 40 40 00 91 3E 40 00 28 40 60 81 3E 40 00 91 3B 40 60 81 3B 40 00 91 38 40 60 81 28 40 00 38 40 00 91 39 40 00 2D 40 82 20 81 39 40 00 2D 40 00 91 2D 40 00 39 40 82 20 81 2D 40 00 39 40 00 91 39 40 00 2D 40 82 20 81 39 40 00 2D 40 00 FF 2F 00 