4D 54 68 64 00 00 00 06 00 00 00 01 00 80 4D 54 72 6B 00 00 00 8C 00 FF 58 04 04 02 30 08 00 FF 59 02 00 00 00 90 3C 28 81 00 90 3C 00 00 90 3C 1E 81 00 90 3C 00 00 90 43 2D 81 00 90 43 00 00 90 43 32 81 00 90 43 00 00 90 45 2D 81 00 90 45 00 00 90 45 32 81 00 90 45 00 00 90 43 23 82 00 90 43 00 00 90 41 32 81 00 90 41 00 00 90 41 2D 81 00 90 41 00 00 90 40 32 40 90 40 00 40 90 40 28 40 90 40 00 40 90 3E 2D 40 90 3E 00 40 90 3E 32 40 90 3E 00 40 90 3C 1E 82 00 90 3C 00 00 FF 2F 00 