4D 54 68 64 00 00 00 06 00 01 00 03 01 80 4D 54 72 6B 00 00 01 D2 00 FF 58 04 04 02 18 08 00 FF 51 03 08 52 AE 00 FF 03 15 45 6C 65 63 2E 20 50 69 61 6E 6F 20 28 43 6C 61 73 73 69 63 29 00 C0 00 00 90 3C 32 81 40 80 3C 00 81 40 90 3C 32 81 40 80 3C 00 81 40 90 43 32 81 40 80 43 00 81 40 90 43 32 81 40 80 43 00 81 40 90 45 32 81 40 80 45 00 81 40 90 45 32 81 40 80 45 00 81 40 90 43 32 83 00 80 43 00 83 00 90 41 32 81 40 80 41 00 81 40 90 41 32 81 40 80 41 00 81 40 90 40 32 81 40 80 40 00 81 40 90 40 32 81 40 80 40 00 81 40 90 3E 32 81 40 80 3E 00 81 40 90 3E 32 81 40 80 3E 00 81 40 90 3C 32 83 00 80 3C 00 83 00 90 43 32 81 40 80 43 00 81 40 90 43 32 81 40 80 43 00 81 40 90 41 32 81 40 80 41 00 81 40 90 41 32 81 40 80 41 00 81 40 90 40 32 81 40 80 40 00 81 40 90 40 32 81 40 80 40 00 81 40 90 3E 32 83 00 80 3E 00 83 00 90 43 32 81 40 80 43 00 81 40 90 43 32 81 40 80 43 00 81 40 90 41 32 81 40 80 41 00 81 40 90 41 32 81 40 80 41 00 81 40 90 40 32 81 40 80 40 00 81 40 90 40 32 81 40 80 40 00 81 40 90 3E 32 83 00 80 3E 00 83 00 90 3C 32 81 40 80 3C 00 81 40 90 3C 32 81 40 80 3C 00 81 40 90 43 32 81 40 80 43 00 81 40 90 43 32 81 40 80 43 00 81 40 90 45 32 81 40 80 45 00 81 40 90 45 32 81 40 80 45 00 81 40 90 43 32 83 00 80 43 00 83 00 90 41 32 81 40 80 41 00 81 40 90 41 32 81 40 80 41 00 81 40 90 40 32 81 40 80 40 00 81 40 90 40 32 81 40 80 40 00 81 40 90 3E 32 81 40 80 3E 00 81 40 90 3E 32 81 40 80 3E 00 81 40 90 3C 32 83 00 80 3C 00 00 FF 2F 00 4D 54 72 6B 00 00 00 ED 00 FF 03 0A 56 69 62 72 61 70 68 6F 6E 65 00 C1 0B 00 91 3C 32 86 00 81 3C 00 00 91 43 32 86 00 81 43 00 00 91 45 32 86 00 81 45 00 00 91 43 32 86 00 81 43 00 00 91 41 32 86 00 81 41 00 00 91 40 32 86 00 81 40 00 00 91 3E 32 86 00 81 3E 00 00 91 3C 32 86 00 81 3C 00 00 91 43 32 86 00 81 43 00 00 91 41 32 86 00 81 41 00 00 91 40 32 86 00 81 40 00 00 91 3E 32 86 00 81 3E 00 00 91 43 32 86 00 81 43 00 00 91 41 32 86 00 81 41 00 00 91 40 32 86 00 81 40 00 00 91 3E 32 86 00 81 3E 00 00 91 3C 32 86 00 81 3C 00 00 91 43 32 86 00 81 43 00 00 91 45 32 86 00 81 45 00 00 91 43 32 86 00 81 43 00 00 91 41 32 86 00 81 41 00 00 91 40 32 86 00 81 40 00 00 91 3E 32 86 00 81 3E 00 00 91 3C 32 86 00 81 3C 00 00 FF 2F 00 4D 54 72 6B 00 00 01 88 00 FF 03 09 4D 75 73 69 63 20 42 6F 78 00 C2 0A 00 92 48 32 83 00 82 48 00 00 92 48 32 83 00 82 48 00 00 92 4F 32 83 00 82 4F 00 00 92 4F 32 83 00 82 4F 00 00 92 51 32 60 82 51 00 60 92 53 32 60 82 53 00 60 92 54 32 60 82 54 00 60 92 51 32 60 82 51 00 60 92 4F 32 86 00 82 4F 00 00 92 4D 32 86 00 82 4D 00 00 92 4C 32 86 00 82 4C 00 00 92 4A 32 60 82 4A 00 60 92 4C 32 60 82 4C 00 60 92 4D 32 60 82 4D 00 60 92 4A 32 60 82 4A 00 60 92 48 32 86 00 82 48 00 00 92 4F 32 86 00 82 4F 00 00 92 4D 32 86 00 82 4D 00 00 92 4C 32 60 82 4C 00 60 92 4D 32 60 82 4D 00 60 92 4F 32 60 82 4F 00 60 92 4C 32 60 82 4C 00 60 92 4A 32 86 00 82 4A 00 00 92 4F 32 86 00 82 4F 00 00 92 4D 32 86 00 82 4D 00 00 92 4C 32 60 82 4C 00 60 92 4D 32 60 82 4D 00 60 92 4F 32 60 82 4F 00 60 92 4C 32 60 82 4C 00 60 92 4A 32 86 00 82 4A 00 00 92 48 32 86 00 82 48 00 00 92 4F 32 86 00 82 4F 00 00 92 51 32 60 82 51 00 60 92 53 32 60 82 53 00 60 92 54 32 60 82 54 00 60 92 51 32 60 82 51 00 60 92 4F 32 86 00 82 4F 00 00 92 4D 32 86 00 82 4D 00 00 92 4C 32 86 00 82 4C 00 00 92 4A 32 60 82 4A 00 60 92 4C 32 60 82 4C 00 60 92 4D 32 60 82 4D 00 60 92 4A 32 60 82 4A 00 60 92 48 32 86 00 82 48 00 00 FF 2F 00 